<svg width="28" height="22" viewBox="0 0 28 22" fill="none" xmlns="http://www.w3.org/2000/svg">
<path d="M0.875 4.90625C0.875 3.78737 1.31947 2.71431 2.11064 1.92314C2.90181 1.13197 3.97487 0.6875 5.09375 0.6875H22.9062C24.0251 0.6875 25.0982 1.13197 25.8894 1.92314C26.6805 2.71431 27.125 3.78737 27.125 4.90625V17.0938C27.125 18.2126 26.6805 19.2857 25.8894 20.0769C25.0982 20.868 24.0251 21.3125 22.9062 21.3125H5.09375C3.97487 21.3125 2.90181 20.868 2.11064 20.0769C1.31947 19.2857 0.875 18.2126 0.875 17.0938V4.90625ZM5.09375 2.5625C4.47215 2.5625 3.87601 2.80943 3.43647 3.24897C2.99693 3.68851 2.75 4.28465 2.75 4.90625V6.3125H25.25V4.90625C25.25 4.28465 25.0031 3.68851 24.5635 3.24897C24.124 2.80943 23.5279 2.5625 22.9062 2.5625H5.09375ZM2.75 17.0938C2.75 17.7154 2.99693 18.3115 3.43647 18.751C3.87601 19.1906 4.47215 19.4375 5.09375 19.4375H22.9062C23.5279 19.4375 24.124 19.1906 24.5635 18.751C25.0031 18.3115 25.25 17.7154 25.25 17.0938V8.1875H2.75V17.0938ZM18.6875 13.8125H21.5C21.7486 13.8125 21.9871 13.9113 22.1629 14.0871C22.3387 14.2629 22.4375 14.5014 22.4375 14.75C22.4375 14.9986 22.3387 15.2371 22.1629 15.4129C21.9871 15.5887 21.7486 15.6875 21.5 15.6875H18.6875C18.4389 15.6875 18.2004 15.5887 18.0246 15.4129C17.8488 15.2371 17.75 14.9986 17.75 14.75C17.75 14.5014 17.8488 14.2629 18.0246 14.0871C18.2004 13.9113 18.4389 13.8125 18.6875 13.8125Z" fill="white"/>
</svg>
