<svg width="28" height="28" viewBox="0 0 28 28" fill="none" xmlns="http://www.w3.org/2000/svg">
<path d="M8.40777 28C7.63706 28 6.97751 27.7261 6.42914 27.1782C5.87983 26.6294 5.60518 25.97 5.60518 25.2C5.60518 24.43 5.87983 23.7706 6.42914 23.2218C6.97751 22.6739 7.63706 22.4 8.40777 22.4C9.17848 22.4 9.83802 22.6739 10.3864 23.2218C10.9357 23.7706 11.2104 24.43 11.2104 25.2C11.2104 25.97 10.9357 26.6294 10.3864 27.1782C9.83802 27.7261 9.17848 28 8.40777 28ZM22.4207 28C21.65 28 20.9905 27.7261 20.4421 27.1782C19.8928 26.6294 19.6181 25.97 19.6181 25.2C19.6181 24.43 19.8928 23.7706 20.4421 23.2218C20.9905 22.6739 21.65 22.4 22.4207 22.4C23.1914 22.4 23.8514 22.6739 24.4007 23.2218C24.9491 23.7706 25.2233 24.43 25.2233 25.2C25.2233 25.97 24.9491 26.6294 24.4007 27.1782C23.8514 27.7261 23.1914 28 22.4207 28ZM7.21667 5.6L10.5798 12.6H20.3888L24.2424 5.6H7.21667ZM5.88544 2.8H26.5545C27.0917 2.8 27.5004 3.03893 27.7807 3.5168C28.0609 3.9956 28.0726 4.48 27.8157 4.97L22.8411 13.93C22.5842 14.3967 22.2395 14.7583 21.8069 15.015C21.3753 15.2717 20.9026 15.4 20.3888 15.4H9.94919L8.40777 18.2H25.2233V21H8.40777C7.3568 21 6.56273 20.5389 6.02557 19.6168C5.4884 18.6956 5.46505 17.78 5.9555 16.87L7.84725 13.44L2.80259 2.8H0V0H4.55421L5.88544 2.8Z" fill="#1B1C1E"/>
</svg>
