<svg width="30" height="27" viewBox="0 0 30 27" fill="none" xmlns="http://www.w3.org/2000/svg">
<path d="M20 0.5C18.75 0.5 17.75 1.5 17.75 2.75C17.75 4 18.75 5 20 5C21.25 5 22.25 4 22.25 2.75C22.25 1.5 21.25 0.5 20 0.5ZM15.5 4.125C14.9125 4.125 14.375 4.3625 14 4.75L9.375 9.3625C8.9875 9.75 8.75 10.25 8.75 10.875C8.75 11.6625 9.1625 12.325 9.8125 12.7125L14 15.25V21.5H16.25V13.375L13.4375 11.3125L16.3375 8.375L18.5 11.5H23.75V9.25H19.75L17.325 5.1625C16.9625 4.5375 16.25 4.125 15.5 4.125ZM12.5 2.75H3.75C3.0625 2.75 2.5 2.1875 2.5 1.5C2.5 0.8125 3.0625 0.25 3.75 0.25H15.9875C15.725 0.675 15.5125 1.1375 15.4 1.6375C14.325 1.6625 13.3125 2.0625 12.5 2.75ZM6.25 14C2.8 14 0 16.8 0 20.25C0 23.7 2.8 26.5 6.25 26.5C9.7 26.5 12.5 23.7 12.5 20.25C12.5 16.8 9.7 14 6.25 14ZM6.25 24.625C3.8375 24.625 1.875 22.6625 1.875 20.25C1.875 17.8375 3.8375 15.875 6.25 15.875C8.6625 15.875 10.625 17.8375 10.625 20.25C10.625 22.6625 8.6625 24.625 6.25 24.625ZM23.75 14C20.3 14 17.5 16.8 17.5 20.25C17.5 23.7 20.3 26.5 23.75 26.5C27.2 26.5 30 23.7 30 20.25C30 16.8 27.2 14 23.75 14ZM23.75 24.625C21.3375 24.625 19.375 22.6625 19.375 20.25C19.375 17.8375 21.3375 15.875 23.75 15.875C26.1625 15.875 28.125 17.8375 28.125 20.25C28.125 22.6625 26.1625 24.625 23.75 24.625ZM6.65 12.75H1.25C0.56 12.75 0 12.1875 0 11.5C0 10.8125 0.56 10.25 1.25 10.25H6.3125C6.2875 10.45 6.25 10.6625 6.25 10.875C6.25 11.5375 6.4 12.175 6.65 12.75ZM7.5 7.75H2.5C1.8125 7.75 1.25 7.1875 1.25 6.5C1.25 5.8125 1.8125 5.25 2.5 5.25H9.9625L7.6125 7.5875C7.5625 7.6375 7.5 7.7 7.5 7.75Z" fill="white"/>
</svg>
