<svg width="28" height="28" viewBox="0 0 28 28" fill="none" xmlns="http://www.w3.org/2000/svg">
<path d="M12.11 27.1299L9.695 24.6384C7.22167 22.081 4.98773 19.543 2.9932 17.0246C0.997733 14.5073 0 11.7326 0 8.70056C0 6.22222 0.735 4.15254 2.205 2.49153C3.675 0.830508 5.50667 0 7.7 0C8.93667 0 10.1033 0.296346 11.2 0.889039C12.2967 1.48279 13.23 2.29379 14 3.32203C14.77 2.29379 15.7033 1.48279 16.8 0.889039C17.8967 0.296346 19.0633 0 20.3 0C22.4933 0 24.325 0.830508 25.795 2.49153C27.265 4.15254 28 6.22222 28 8.70056C28 11.7326 27.0083 14.5141 25.025 17.0452C23.0417 19.5763 20.79 22.1205 18.27 24.678L15.89 27.1299C15.3533 27.71 14.7233 28 14 28C13.2767 28 12.6467 27.71 12.11 27.1299ZM12.67 6.48588C11.9933 5.4049 11.27 4.58072 10.5 4.01333C9.73 3.44701 8.79667 3.16384 7.7 3.16384C6.3 3.16384 5.13333 3.69115 4.2 4.74576C3.26667 5.80038 2.8 7.11864 2.8 8.70056C2.8 10.0716 3.23167 11.528 4.095 13.0698C4.95833 14.6127 5.99107 16.1092 7.1932 17.5593C8.3944 19.0094 9.63107 20.3672 10.9032 21.6328C12.1744 22.8983 13.2067 23.9397 14 24.7571C14.7933 23.9397 15.8261 22.8983 17.0982 21.6328C18.3694 20.3672 19.6061 19.0094 20.8082 17.5593C22.0094 16.1092 23.0417 14.6127 23.905 13.0698C24.7683 11.528 25.2 10.0716 25.2 8.70056C25.2 7.11864 24.7333 5.80038 23.8 4.74576C22.8667 3.69115 21.7 3.16384 20.3 3.16384C19.2033 3.16384 18.27 3.44701 17.5 4.01333C16.73 4.58072 16.0067 5.4049 15.33 6.48588C15.1667 6.74953 14.9683 6.94727 14.735 7.0791C14.5017 7.21092 14.2567 7.27684 14 7.27684C13.7433 7.27684 13.4983 7.21092 13.265 7.0791C13.0317 6.94727 12.8333 6.74953 12.67 6.48588Z" fill="#1B1C1E"/>
</svg>
