<svg width="28" height="28" viewBox="0 0 28 28" fill="none" xmlns="http://www.w3.org/2000/svg">
<path d="M25.2955 27.5619L16.3864 18.6401C15.5909 19.2774 14.6761 19.7819 13.642 20.1536C12.608 20.5254 11.5076 20.7112 10.3409 20.7112C7.45076 20.7112 5.005 19.7091 3.00364 17.7049C1.00121 15.6996 0 13.2499 0 10.3556C0 7.46136 1.00121 5.01159 3.00364 3.00632C5.005 1.00211 7.45076 0 10.3409 0C13.2311 0 15.6773 1.00211 17.6798 3.00632C19.6811 5.01159 20.6818 7.46136 20.6818 10.3556C20.6818 11.5239 20.4962 12.6259 20.125 13.6615C19.7538 14.697 19.25 15.6131 18.6136 16.4097L27.5625 25.3713C27.8542 25.6633 28 26.0218 28 26.4467C28 26.8715 27.8409 27.2432 27.5227 27.5619C27.2311 27.854 26.8598 28 26.4091 28C25.9583 28 25.5871 27.854 25.2955 27.5619ZM10.3409 17.5249C12.3295 17.5249 14.0202 16.8281 15.4127 15.4347C16.8042 14.0401 17.5 12.3471 17.5 10.3556C17.5 8.36415 16.8042 6.67114 15.4127 5.27659C14.0202 3.88309 12.3295 3.18634 10.3409 3.18634C8.35227 3.18634 6.66167 3.88309 5.26909 5.27659C3.87758 6.67114 3.18182 8.36415 3.18182 10.3556C3.18182 12.3471 3.87758 14.0401 5.26909 15.4347C6.66167 16.8281 8.35227 17.5249 10.3409 17.5249Z" fill="#1B1C1E"/>
</svg>
