<svg width="24" height="24" viewBox="0 0 24 24" fill="none" xmlns="http://www.w3.org/2000/svg">
<path d="M12 2.77688C15.204 2.77688 15.584 2.78812 16.849 2.8425C17.6098 2.85097 18.3635 2.98194 19.077 3.22969C19.5947 3.4169 20.0648 3.70364 20.4571 4.07145C20.8495 4.43926 21.1553 4.88 21.355 5.36531C21.6193 6.03425 21.759 6.74077 21.768 7.45406C21.826 8.64 21.838 8.99625 21.838 12.0009C21.838 15.0056 21.826 15.36 21.768 16.5459C21.759 17.2592 21.6193 17.9658 21.355 18.6347C21.1553 19.12 20.8495 19.5607 20.4571 19.9286C20.0648 20.2964 19.5947 20.5831 19.077 20.7703C18.3635 21.0181 17.6098 21.149 16.849 21.1575C15.584 21.2119 15.204 21.2231 12 21.2231C8.796 21.2231 8.416 21.2119 7.151 21.1575C6.39016 21.149 5.63653 21.0181 4.923 20.7703C4.40534 20.5831 3.93521 20.2964 3.54288 19.9286C3.15055 19.5607 2.84469 19.12 2.645 18.6347C2.38073 17.9658 2.24103 17.2592 2.232 16.5459C2.174 15.36 2.162 15.0037 2.162 12C2.162 8.99625 2.174 8.64 2.232 7.45406C2.24103 6.74077 2.38073 6.03425 2.645 5.36531C2.84469 4.88 3.15055 4.43926 3.54288 4.07145C3.93521 3.70364 4.40534 3.4169 4.923 3.22969C5.63653 2.98194 6.39016 2.85097 7.151 2.8425C8.416 2.78812 8.796 2.77688 12 2.77688ZM12 0.75C8.741 0.75 8.332 0.763125 7.052 0.8175C6.05677 0.83634 5.07216 1.01322 4.14 1.34063C3.34272 1.62965 2.61866 2.07167 2.01422 2.63833C1.40978 3.20499 0.938297 3.8838 0.63 4.63125C0.280658 5.50544 0.0919834 6.42885 0.072 7.36219C0.014 8.56219 0 8.94375 0 12C0 15.0562 0.014 15.4388 0.072 16.6388C0.0920961 17.5718 0.280769 18.4949 0.63 19.3688C0.938297 20.1162 1.40978 20.795 2.01422 21.3617C2.61866 21.9283 3.34272 22.3703 4.14 22.6594C5.07247 22.9869 6.05744 23.1638 7.053 23.1825C8.333 23.2369 8.741 23.25 12 23.25C15.259 23.25 15.668 23.2369 16.948 23.1825C17.9436 23.1638 18.9285 22.9869 19.861 22.6594C20.6583 22.3703 21.3823 21.9283 21.9868 21.3617C22.5912 20.795 23.0627 20.1162 23.371 19.3688C23.72 18.4945 23.9083 17.5711 23.928 16.6378C23.986 15.4378 24 15.0562 24 12C24 8.94375 23.986 8.56125 23.928 7.36125C23.9079 6.42823 23.7192 5.50515 23.37 4.63125C23.0617 3.8838 22.5902 3.20499 21.9858 2.63833C21.3813 2.07167 20.6573 1.62965 19.86 1.34063C18.9275 1.01344 17.9425 0.836872 16.947 0.818437C15.667 0.762187 15.26 0.75 12 0.75Z" fill="white"/>
</svg>
