<svg width="26" height="26" viewBox="0 0 26 26" fill="none" xmlns="http://www.w3.org/2000/svg">
<path d="M24.25 6.90625C22.7582 6.90625 21.3274 6.31362 20.2725 5.25873C19.2176 4.20383 18.625 2.77309 18.625 1.28125C18.625 1.03261 18.5262 0.794153 18.3504 0.618337C18.1746 0.442522 17.9361 0.34375 17.6875 0.34375H13C12.7514 0.34375 12.5129 0.442522 12.3371 0.618337C12.1613 0.794153 12.0625 1.03261 12.0625 1.28125V16.2813C12.0616 16.7003 11.9483 17.1115 11.7345 17.4719C11.5208 17.8323 11.2142 18.1288 10.8469 18.3305C10.4796 18.5322 10.0649 18.6318 9.64606 18.6188C9.2272 18.6058 8.81949 18.4807 8.46539 18.2566C8.11128 18.0325 7.82374 17.7176 7.6327 17.3446C7.44167 16.9716 7.35413 16.5542 7.3792 16.1359C7.40428 15.7176 7.54105 15.3137 7.77527 14.9662C8.00949 14.6187 8.3326 14.3404 8.71094 14.1602C8.87223 14.086 9.0088 13.967 9.10437 13.8174C9.19995 13.6678 9.2505 13.4939 9.25 13.3164V8.44141C9.25232 8.30243 9.22292 8.16476 9.16403 8.03886C9.10514 7.91296 9.01832 7.80214 8.91016 7.71484C8.80523 7.62839 8.68275 7.5658 8.55122 7.5314C8.41969 7.497 8.28225 7.49161 8.14844 7.51562C6.48061 7.81437 4.93261 8.58267 3.68612 9.73035C2.43964 10.878 1.54639 12.3575 1.11124 13.995C0.676078 15.6325 0.717063 17.3602 1.22938 18.9753C1.7417 20.5903 2.70409 22.0258 4.00359 23.113C5.3031 24.2003 6.88579 24.8943 8.5659 25.1137C10.246 25.333 11.9538 25.0685 13.4889 24.3513C15.024 23.634 16.3226 22.4937 17.2323 21.0643C18.1421 19.6349 18.6252 17.9756 18.625 16.2813V12.0977C20.3613 13.0034 22.2916 13.4739 24.25 13.4688C24.4986 13.4688 24.7371 13.37 24.9129 13.1942C25.0887 13.0183 25.1875 12.7799 25.1875 12.5313V7.84375C25.1875 7.59511 25.0887 7.35665 24.9129 7.18084C24.7371 7.00502 24.4986 6.90625 24.25 6.90625ZM23.3125 11.5469C21.4825 11.3844 19.7299 10.7328 18.2383 9.66016C18.0972 9.56275 17.9323 9.50538 17.7612 9.49414C17.5901 9.4829 17.4192 9.51822 17.2666 9.59634C17.1139 9.67446 16.9853 9.79247 16.8943 9.93782C16.8034 10.0832 16.7535 10.2504 16.75 10.4219V16.2813C16.7493 17.5701 16.3944 18.8341 15.724 19.9349C15.0535 21.0357 14.0934 21.931 12.9486 22.5231C11.8037 23.1152 10.5181 23.3811 9.23231 23.292C7.9465 23.2028 6.70994 22.7619 5.65775 22.0175C4.60557 21.2731 3.77824 20.2538 3.26619 19.0709C2.75414 17.8881 2.57706 16.5873 2.7543 15.3107C2.93154 14.034 3.45629 12.8306 4.2712 11.832C5.0861 10.8335 6.15982 10.0781 7.375 9.64844V12.7773C6.76884 13.1824 6.27798 13.7375 5.95027 14.3887C5.62256 15.0399 5.4692 15.7649 5.50513 16.4931C5.54106 17.2212 5.76506 17.9276 6.15528 18.5434C6.54551 19.1591 7.08865 19.6633 7.73173 20.0067C8.37482 20.35 9.09591 20.5209 9.82469 20.5026C10.5535 20.4843 11.2651 20.2774 11.8901 19.9022C12.5152 19.527 13.0323 18.9962 13.3911 18.3616C13.7499 17.727 13.9382 17.0103 13.9375 16.2813V2.21875H16.8086C17.0187 3.87032 17.7714 5.40531 18.9487 6.58256C20.1259 7.7598 21.6609 8.51259 23.3125 8.72266V11.5469Z" fill="white"/>
</svg>
