<svg width="28" height="23" viewBox="0 0 28 23" fill="none" xmlns="http://www.w3.org/2000/svg">
<path d="M27.1251 1.48637C27.1251 1.37605 27.0959 1.26771 27.0404 1.17234C26.985 1.07697 26.9053 0.997975 26.8094 0.94338C26.7135 0.888785 26.6049 0.860535 26.4946 0.861498C26.3843 0.862462 26.2762 0.892604 26.1813 0.948865C25.3016 1.47273 24.3462 1.85728 23.3488 2.08887C22.2589 1.04827 20.8082 0.470332 19.3013 0.476365C18.4829 0.477527 17.6736 0.648571 16.9246 0.978672C16.1757 1.30877 15.5034 1.79074 14.9504 2.39408C14.3973 2.99742 13.9755 3.70899 13.7117 4.48376C13.4478 5.25854 13.3477 6.07964 13.4176 6.89511C9.639 6.49354 6.172 4.6156 3.77134 1.67012C3.70727 1.59186 3.62516 1.53033 3.53207 1.4908C3.43898 1.45127 3.33768 1.43492 3.23688 1.44315C3.13607 1.45139 3.03878 1.48397 2.95334 1.53809C2.8679 1.5922 2.79687 1.66625 2.74634 1.75387C2.22774 2.65823 1.95495 3.68261 1.95509 4.72511C1.95357 5.86928 2.28448 6.98925 2.90759 7.94886L2.83259 7.90762C2.73466 7.85954 2.62592 7.83772 2.51701 7.84429C2.40811 7.85087 2.30278 7.88561 2.21134 7.94511C2.11607 8.00706 2.03787 8.09195 1.98392 8.19197C1.92998 8.292 1.90201 8.40397 1.90259 8.51762C1.89759 8.66512 1.90634 8.81387 1.93009 8.95887C1.98917 9.78414 2.2222 10.5876 2.61386 11.3164C3.00552 12.0452 3.54695 12.6829 4.20259 13.1876C4.12268 13.2111 4.04828 13.2504 3.98377 13.3031C3.91925 13.3558 3.86592 13.4209 3.8269 13.4945C3.78789 13.5681 3.76398 13.6487 3.75659 13.7317C3.74919 13.8147 3.75846 13.8983 3.78384 13.9776C4.0726 14.878 4.57422 15.6954 5.24618 16.3606C5.91814 17.0259 6.74061 17.5192 7.64384 17.7989C5.79945 18.8314 3.67524 19.2529 1.57634 19.0026C1.43569 18.985 1.29324 19.0158 1.17237 19.0898C1.05149 19.1638 0.959363 19.2767 0.91111 19.41C0.862856 19.5433 0.86134 19.689 0.906809 19.8233C0.952278 19.9575 1.04203 20.0723 1.16134 20.1489C3.67315 21.7662 6.59763 22.6259 9.58509 22.6251C12.9741 22.6625 16.2804 21.5791 18.99 19.5432C21.6995 17.5073 23.6604 14.6331 24.5676 11.3676C24.9913 9.94637 25.2076 8.47012 25.2101 6.98637C25.2101 6.83637 25.2101 6.68012 25.2063 6.52137C25.8565 5.86033 26.3626 5.07178 26.6928 4.20542C27.0231 3.33906 27.1703 2.41243 27.1251 1.48637ZM24.0951 5.90262C23.9924 6.02402 23.9401 6.18011 23.9488 6.33887C24.0171 7.91903 23.8211 9.49951 23.3688 11.0151C22.5621 14.0354 20.7654 16.6977 18.2664 18.576C15.7675 20.4543 12.7106 21.4399 9.58509 21.3751C7.67762 21.3752 5.78938 20.994 4.03134 20.2539C6.09749 20.0246 8.05752 19.219 9.68759 17.9289C9.78901 17.8491 9.86327 17.74 9.90019 17.6164C9.93711 17.4928 9.93487 17.3608 9.89379 17.2385C9.85271 17.1162 9.77479 17.0096 9.67074 16.9334C9.56668 16.8571 9.44158 16.8149 9.31259 16.8126C8.51254 16.7996 7.72946 16.5798 7.03949 16.1746C6.34953 15.7694 5.77615 15.1925 5.37509 14.5001C5.90634 14.5014 6.43384 14.4289 6.94259 14.2826C7.07668 14.2433 7.19373 14.1602 7.27506 14.0466C7.35638 13.933 7.39729 13.7954 7.39124 13.6558C7.3852 13.5162 7.33255 13.3827 7.24171 13.2765C7.15087 13.1703 7.02707 13.0977 6.89009 13.0701C5.99533 12.8911 5.17338 12.4517 4.52736 11.8073C3.88135 11.1628 3.44005 10.3419 3.25884 9.44762C3.78969 9.61976 4.34228 9.71571 4.90009 9.73262C5.03752 9.74279 5.17419 9.70464 5.28648 9.62476C5.39877 9.54488 5.47963 9.42828 5.51509 9.29512C5.55592 9.16585 5.55362 9.02681 5.50852 8.89897C5.46343 8.77112 5.37799 8.66141 5.26509 8.58637C4.62915 8.16306 4.1081 7.58865 3.74859 6.91458C3.38909 6.24051 3.20235 5.48781 3.20509 4.72387C3.20509 4.20762 3.28884 3.69512 3.45509 3.20762C6.22639 6.20014 10.0568 7.99202 14.1301 8.20137C14.2274 8.21177 14.3258 8.1966 14.4154 8.15736C14.5051 8.11812 14.583 8.05616 14.6413 7.97761C14.7033 7.90332 14.7472 7.81566 14.7696 7.72152C14.7919 7.62738 14.7921 7.52934 14.7701 7.43511C14.6876 7.09034 14.6456 6.73712 14.6451 6.38262C14.6464 5.14821 15.1372 3.9647 16.0098 3.09161C16.8824 2.21852 18.0657 1.7271 19.3001 1.72512C19.9359 1.72331 20.5652 1.85334 21.1483 2.107C21.7313 2.36065 22.2555 2.73243 22.6876 3.19887C22.7602 3.27628 22.8513 3.3339 22.9523 3.36627C23.0534 3.39864 23.161 3.4047 23.2651 3.38387C24.1521 3.20922 25.0147 2.92757 25.8338 2.54511C25.6209 3.81925 25.0133 4.99397 24.0951 5.90262Z" fill="white"/>
</svg>
