<svg width="30" height="30" viewBox="0 0 30 30" fill="none" xmlns="http://www.w3.org/2000/svg">
<path d="M15 0.937514C11.1469 0.816186 7.40311 2.22893 4.59073 4.86554C1.77834 7.50215 0.127253 11.1471 0 15C0.127253 18.8529 1.77834 22.4979 4.59073 25.1345C7.40311 27.7711 11.1469 29.1838 15 29.0625C18.8531 29.1838 22.5969 27.7711 25.4093 25.1345C28.2217 22.4979 29.8727 18.8529 30 15C29.8727 11.1471 28.2217 7.50215 25.4093 4.86554C22.5969 2.22893 18.8531 0.816186 15 0.937514ZM15 26.7188C11.7697 26.8355 8.62464 25.6681 6.25283 23.472C3.88101 21.2758 2.4755 18.2297 2.34375 15C2.4755 11.7703 3.88101 8.7242 6.25283 6.52807C8.62464 4.33194 11.7697 3.16455 15 3.28126C18.2303 3.16455 21.3754 4.33194 23.7472 6.52807C26.119 8.7242 27.5245 11.7703 27.6562 15C27.5245 18.2297 26.119 21.2758 23.7472 23.472C21.3754 25.6681 18.2303 26.8355 15 26.7188Z" fill="white"/>
</svg>
